<svg id="Layer_1" data-name="Layer 1" xmlns="http://www.w3.org/2000/svg" xmlns:xlink="http://www.w3.org/1999/xlink" viewBox="0 0 1000 1000"><defs><style>.cls-1,.cls-3,.cls-8{fill:none;}.cls-2{fill:#fff;}.cls-2,.cls-4,.cls-6,.cls-7{fill-rule:evenodd;}.cls-3,.cls-8{stroke:#1d1d1b;stroke-miterlimit:22.93;}.cls-3{stroke-width:0.74px;}.cls-4{fill:#010101;}.cls-5{clip-path:url(#clip-path);}.cls-6{fill:#ec7e23;}.cls-7{fill:#1d1d1b;}.cls-8{stroke-width:0.22px;}</style><clipPath id="clip-path"><path class="cls-1" d="M500,264.86c129.51,0,235.15,105.63,235.15,235.14S629.52,735.15,500,735.15,264.86,629.52,264.86,500,370.49,264.86,500,264.86"/></clipPath></defs><path class="cls-2" d="M500,182.21C675,182.21,817.78,325,817.78,500S675,817.79,500,817.79,182.22,675,182.22,500,325,182.21,500,182.21"/><path class="cls-3" d="M500,187.62C672.06,187.62,812.39,328,812.39,500S672.06,812.41,500,812.41,187.61,672.07,187.61,500,328,187.62,500,187.62Z"/><path class="cls-2" d="M500,187.6c172.06,0,312.39,140.34,312.39,312.4S672.06,812.39,500,812.39,187.62,672.06,187.62,500,328,187.6,500,187.6"/><path class="cls-2" d="M500,258.24c133.16,0,241.76,108.61,241.76,241.76S633.16,741.75,500,741.75,258.24,633.16,258.24,500,366.85,258.24,500,258.24"/><path class="cls-3" d="M500,264.87c129.51,0,235.14,105.63,235.14,235.14S629.52,735.16,500,735.16,264.86,629.54,264.86,500,370.49,264.87,500,264.87Z"/><path class="cls-4" d="M500,264.86c129.51,0,235.15,105.63,235.15,235.14S629.52,735.15,500,735.15,264.86,629.52,264.86,500,370.49,264.86,500,264.86"/><g class="cls-5"><polygon class="cls-6" points="281.74 747.25 209.56 199.31 355.77 167.93 281.74 747.25"/></g><g class="cls-5"><polygon class="cls-6" points="278.99 747.82 423.39 214.33 570.41 241.67 278.99 747.82"/></g><g class="cls-5"><polygon class="cls-6" points="276.24 747.28 638.91 284.41 740.09 392.37 276.24 747.28"/></g><g class="cls-5"><polygon class="cls-6" points="273.92 745.71 754.68 473.08 838.67 596.81 273.92 745.71"/></g><g class="cls-5"><polygon class="cls-6" points="272.38 743.36 821.04 676.89 850.91 823.42 272.38 743.36"/></g><path class="cls-7" d="M230.08,385.25l1.84-3.83,17.72-1.94L240,364.59l1.83-3.83,12.3,18.8L270,387.15l-1.56,3.28-15.87-7.6Zm-8.69,22.43,1.3-3.47,31.12,11.68,4.95-13.23,3.33,1.25-6.27,16.69Zm-8.59,30,5.31-20.4,3.51.91-4.38,16.84L228.38,438l4.34-16.71,3.48.9-4.34,16.71,14,3.62,4.35-16.7,3.51.93L248.4,447Zm-7,42.45.6-3.95,29.93-7.8-26.27-16.51.61-4,34,21.33-.12.78Zm2.45,29.61a15.62,15.62,0,0,0,8,13.37,15.72,15.72,0,0,0,8,2,15.45,15.45,0,0,0,15.46-15.6,15.85,15.85,0,0,0-2.14-7.89,14.87,14.87,0,0,0-5.71-5.64,16.09,16.09,0,0,0-8-2,15.46,15.46,0,0,0-7.91,2.11,15.09,15.09,0,0,0-5.62,5.78A15.39,15.39,0,0,0,208.3,509.76Zm-3.59.2a19.05,19.05,0,0,1,5.47-14,19.34,19.34,0,0,1,33.15,13.45,18.82,18.82,0,0,1-5.49,13.84A18.49,18.49,0,0,1,224.33,529a19.67,19.67,0,0,1-9.84-2.49A18.91,18.91,0,0,1,204.71,510Zm5.78,45.94-.55-3.65,32.88-4.87-2.07-14,3.51-.52,2.61,17.63Z"/><path class="cls-8" d="M230.08,385.25l1.84-3.83,17.72-1.94L240,364.59l1.83-3.83,12.3,18.8L270,387.15l-1.56,3.28-15.87-7.6Zm-8.69,22.43,1.3-3.47,31.12,11.68,4.95-13.23,3.33,1.25-6.27,16.69Zm-8.59,30,5.31-20.4,3.51.91-4.38,16.84L228.38,438l4.34-16.71,3.48.9-4.34,16.71,14,3.62,4.35-16.7,3.51.93L248.4,447Zm-7,42.45.6-3.95,29.93-7.8-26.27-16.51.61-4,34,21.33-.12.78Zm2.45,29.61a15.62,15.62,0,0,0,8,13.37,15.72,15.72,0,0,0,8,2,15.45,15.45,0,0,0,15.46-15.6,15.85,15.85,0,0,0-2.14-7.89,14.87,14.87,0,0,0-5.71-5.64,16.09,16.09,0,0,0-8-2,15.46,15.46,0,0,0-7.91,2.11,15.09,15.09,0,0,0-5.62,5.78A15.39,15.39,0,0,0,208.3,509.76Zm-3.59.2a19.05,19.05,0,0,1,5.47-14,19.34,19.34,0,0,1,33.15,13.45,18.82,18.82,0,0,1-5.49,13.84A18.49,18.49,0,0,1,224.33,529a19.67,19.67,0,0,1-9.84-2.49A18.91,18.91,0,0,1,204.71,510Zm5.78,45.94-.55-3.65,32.88-4.87-2.07-14,3.51-.52,2.61,17.63Z"/><path class="cls-7" d="M656.82,253.08l3.14,2-17.61,28.18,12,7.48-1.88,3-15.12-9.45ZM630.4,246.8l-11.68,9,11.2,5.71Zm4-6.74-1.42,40.56-3.53-1.78.35-13.41-14.12-7.2L605,266.4l-3.64-1.86,32.17-24.88ZM568.72,253.6l11.37-35,.76.25L595.4,253.2l8.7-26.79,3.45,1.13-11.37,35-.78-.26-14.48-33.94-8.58,26.46Zm-20.51-38.81a15.62,15.62,0,0,0-14.6,5.4,15.94,15.94,0,0,0-3.41,7.54,15.43,15.43,0,0,0,12.55,18,15.73,15.73,0,0,0,8.14-.66,15,15,0,0,0,6.57-4.6,15.85,15.85,0,0,0,3.4-7.52,15.56,15.56,0,0,0-.63-8.16,15.12,15.12,0,0,0-4.67-6.57A15.38,15.38,0,0,0,548.21,214.79Zm.45-3.58a19.13,19.13,0,0,1,12.8,7.92,19.33,19.33,0,0,1-19.22,30.18,18.84,18.84,0,0,1-12.62-7.91,18.5,18.5,0,0,1-3.19-14.33,19.7,19.7,0,0,1,4.23-9.23,18.53,18.53,0,0,1,8.12-5.76A18.77,18.77,0,0,1,548.66,211.21Zm-33.28-2.59,3.67.26-2.57,36.69-3.68-.25Zm-31.47,29.55,3.1-1.92q3.4,6,7.73,5.93a7.33,7.33,0,0,0,3.46-.92,6.15,6.15,0,0,0,2.44-2.35,6,6,0,0,0,.8-3.09,6.2,6.2,0,0,0-1.32-3.6,29.47,29.47,0,0,0-6.41-5.79,33.72,33.72,0,0,1-5.81-4.92,9.25,9.25,0,0,1-2-5.6,8.56,8.56,0,0,1,1.06-4.4,8.24,8.24,0,0,1,3.2-3.16,9.26,9.26,0,0,1,4.51-1.22,9.6,9.6,0,0,1,4.88,1.2,16.52,16.52,0,0,1,4.87,4.65l-3,2.33a14.07,14.07,0,0,0-3.6-3.56,6.14,6.14,0,0,0-3.2-.83,5,5,0,0,0-3.61,1.43,4.4,4.4,0,0,0-1.36,3.34,5.54,5.54,0,0,0,.53,2.32,8.84,8.84,0,0,0,1.88,2.42c.49.45,2.1,1.66,4.81,3.58a27.15,27.15,0,0,1,6.67,6.16,10.23,10.23,0,0,1,1.87,5.49,9.39,9.39,0,0,1-2.91,7,10.26,10.26,0,0,1-7.34,3.06,10.75,10.75,0,0,1-6.11-1.67A16.37,16.37,0,0,1,483.91,238.17Zm-26.22,3.06,2.88-2.23c2.68,3.75,5.44,5.44,8.31,5.09a7.08,7.08,0,0,0,3.34-1.27,6.07,6.07,0,0,0,2.18-2.61,5.8,5.8,0,0,0,.47-3.14,6.23,6.23,0,0,0-1.69-3.46,30.61,30.61,0,0,0-7-5.09,33.25,33.25,0,0,1-6.3-4.29,9.28,9.28,0,0,1-2.61-5.35,8.48,8.48,0,0,1,.6-4.48,8.16,8.16,0,0,1,2.85-3.49,9.32,9.32,0,0,1,4.34-1.68,9.66,9.66,0,0,1,5,.68,16.47,16.47,0,0,1,5.33,4.12l-2.69,2.62a14.35,14.35,0,0,0-4-3.16,6.09,6.09,0,0,0-3.27-.49,5.07,5.07,0,0,0-3.46,1.79,4.39,4.39,0,0,0-1,3.47,5.54,5.54,0,0,0,.77,2.25,8.71,8.71,0,0,0,2.11,2.21c.54.39,2.26,1.43,5.17,3.06a27.28,27.28,0,0,1,7.27,5.45,10,10,0,0,1,2.43,5.25,9.35,9.35,0,0,1-2.17,7.28,10.21,10.21,0,0,1-7,3.82,10.87,10.87,0,0,1-6.25-1A16.54,16.54,0,0,1,457.69,241.23Zm-30-23.89L448.29,213l.76,3.54-17,3.62,2.39,11.26,16.89-3.59.74,3.53-16.87,3.58,3,14.12,16.89-3.6.75,3.55-20.48,4.35Zm-27.16,8.22,17.54-5.69,1.12,3.45-14.06,4.58,3.56,10.93,14.05-4.56,1.12,3.44-14,4.58,5.57,17.14-3.48,1.13Zm-29,15.38a15,15,0,0,0-5.93,5.4,15.46,15.46,0,0,0-2.48,7.7,15.87,15.87,0,0,0,1.82,8.07A15.44,15.44,0,0,0,385.77,269a15.82,15.82,0,0,0,6.11-5.44,14.89,14.89,0,0,0,2.48-7.63,16,16,0,0,0-1.81-8.06,15.76,15.76,0,0,0-5.41-6.14,15.95,15.95,0,0,0-15.64-.76Zm-1.8-3.12a19.06,19.06,0,0,1,15-1.39,19.43,19.43,0,0,1-12,36.94,18.41,18.41,0,0,1-11.16-9.52,19.67,19.67,0,0,1-2.17-9.92,18.83,18.83,0,0,1,10.37-16.11Zm-39.61,29.53,7.17,10.24,5.21-3.59a15.39,15.39,0,0,0,4-3.69,5.68,5.68,0,0,0,1-3.4,6.24,6.24,0,0,0-1.17-3.39,6,6,0,0,0-2.75-2.18,5.57,5.57,0,0,0-3.39-.27,16.14,16.14,0,0,0-4.81,2.56Zm-5.08-.84,6-4.21a43.77,43.77,0,0,1,7.09-4.34,9.52,9.52,0,0,1,6.21-.43,9.25,9.25,0,0,1,5.16,3.79,9.78,9.78,0,0,1,1.86,5.13,8.69,8.69,0,0,1-1.34,5.13,18.45,18.45,0,0,1-5.25,5.13l20.65,6.42-3.73,2.62L341,279.31l-1.72,1.2,9.82,14-3,2.11Zm-21,22.12,8,9.58,4.82-3.95a15.92,15.92,0,0,0,3.79-4.07,5.46,5.46,0,0,0,.68-3.47,6.09,6.09,0,0,0-1.44-3.28,6,6,0,0,0-2.95-2,5.43,5.43,0,0,0-3.43,0,16,16,0,0,0-4.53,2.94Zm-5.11-.38,5.62-4.71a42.67,42.67,0,0,1,6.87-5,9.42,9.42,0,0,1,6-.87,10.29,10.29,0,0,1,7.83,9.25,9.54,9.54,0,0,1-2,5.92,47.18,47.18,0,0,1-6.78,6.46l-2,1.7,11,13.1-2.82,2.36Z"/><path class="cls-8" d="M656.82,253.08l3.14,2-17.61,28.18,12,7.48-1.88,3-15.12-9.45ZM630.4,246.8l-11.68,9,11.2,5.71Zm4-6.74-1.42,40.56-3.53-1.78.35-13.41-14.12-7.2L605,266.4l-3.64-1.86,32.17-24.88ZM568.72,253.6l11.37-35,.76.25L595.4,253.2l8.7-26.79,3.45,1.13-11.37,35-.78-.26-14.48-33.94-8.58,26.46Zm-20.51-38.81a15.62,15.62,0,0,0-14.6,5.4,15.94,15.94,0,0,0-3.41,7.54,15.43,15.43,0,0,0,12.55,18,15.73,15.73,0,0,0,8.14-.66,15,15,0,0,0,6.57-4.6,15.85,15.85,0,0,0,3.4-7.52,15.56,15.56,0,0,0-.63-8.16,15.12,15.12,0,0,0-4.67-6.57A15.38,15.38,0,0,0,548.21,214.79Zm.45-3.58a19.13,19.13,0,0,1,12.8,7.92,19.33,19.33,0,0,1-19.22,30.18,18.84,18.84,0,0,1-12.62-7.91,18.5,18.5,0,0,1-3.19-14.33,19.7,19.7,0,0,1,4.23-9.23,18.53,18.53,0,0,1,8.12-5.76A18.77,18.77,0,0,1,548.66,211.21Zm-33.28-2.59,3.67.26-2.57,36.69-3.68-.25Zm-31.47,29.55,3.1-1.92q3.4,6,7.73,5.93a7.33,7.33,0,0,0,3.46-.92,6.15,6.15,0,0,0,2.44-2.35,6,6,0,0,0,.8-3.09,6.2,6.2,0,0,0-1.32-3.6,29.47,29.47,0,0,0-6.41-5.79,33.72,33.72,0,0,1-5.81-4.92,9.25,9.25,0,0,1-2-5.6,8.56,8.56,0,0,1,1.06-4.4,8.24,8.24,0,0,1,3.2-3.16,9.26,9.26,0,0,1,4.51-1.22,9.6,9.6,0,0,1,4.88,1.2,16.52,16.52,0,0,1,4.87,4.65l-3,2.33a14.07,14.07,0,0,0-3.6-3.56,6.14,6.14,0,0,0-3.2-.83,5,5,0,0,0-3.61,1.43,4.4,4.4,0,0,0-1.36,3.34,5.54,5.54,0,0,0,.53,2.32,8.84,8.84,0,0,0,1.88,2.42c.49.45,2.1,1.66,4.81,3.58a27.15,27.15,0,0,1,6.67,6.16,10.23,10.23,0,0,1,1.87,5.49,9.39,9.39,0,0,1-2.91,7,10.26,10.26,0,0,1-7.34,3.06,10.75,10.75,0,0,1-6.11-1.67A16.37,16.37,0,0,1,483.91,238.17Zm-26.22,3.06,2.88-2.23c2.68,3.75,5.44,5.44,8.31,5.09a7.08,7.08,0,0,0,3.34-1.27,6.07,6.07,0,0,0,2.18-2.61,5.8,5.8,0,0,0,.47-3.14,6.23,6.23,0,0,0-1.69-3.46,30.61,30.61,0,0,0-7-5.09,33.25,33.25,0,0,1-6.3-4.29,9.28,9.28,0,0,1-2.61-5.35,8.48,8.48,0,0,1,.6-4.48,8.16,8.16,0,0,1,2.85-3.49,9.32,9.32,0,0,1,4.34-1.68,9.66,9.66,0,0,1,5,.68,16.47,16.47,0,0,1,5.33,4.12l-2.69,2.62a14.35,14.35,0,0,0-4-3.16,6.09,6.09,0,0,0-3.27-.49,5.07,5.07,0,0,0-3.46,1.79,4.39,4.39,0,0,0-1,3.47,5.54,5.54,0,0,0,.77,2.25,8.71,8.71,0,0,0,2.11,2.21c.54.39,2.26,1.43,5.17,3.06a27.28,27.28,0,0,1,7.27,5.45,10,10,0,0,1,2.43,5.25,9.35,9.35,0,0,1-2.17,7.28,10.21,10.21,0,0,1-7,3.82,10.87,10.87,0,0,1-6.25-1A16.54,16.54,0,0,1,457.69,241.23Zm-30-23.89L448.29,213l.76,3.54-17,3.62,2.39,11.26,16.89-3.59.74,3.53-16.87,3.58,3,14.12,16.89-3.6.75,3.55-20.48,4.35Zm-27.16,8.22,17.54-5.69,1.12,3.45-14.06,4.58,3.56,10.93,14.05-4.56,1.12,3.44-14,4.58,5.57,17.14-3.48,1.13Zm-29,15.38a15,15,0,0,0-5.93,5.4,15.46,15.46,0,0,0-2.48,7.7,15.87,15.87,0,0,0,1.82,8.07A15.44,15.44,0,0,0,385.77,269a15.82,15.82,0,0,0,6.11-5.44,14.89,14.89,0,0,0,2.48-7.63,16,16,0,0,0-1.81-8.06,15.76,15.76,0,0,0-5.41-6.14,15.95,15.95,0,0,0-15.64-.76Zm-1.8-3.12a19.06,19.06,0,0,1,15-1.39,19.43,19.43,0,0,1-12,36.94,18.41,18.41,0,0,1-11.16-9.52,19.67,19.67,0,0,1-2.17-9.92,18.83,18.83,0,0,1,10.37-16.11Zm-39.61,29.53,7.17,10.24,5.21-3.59a15.39,15.39,0,0,0,4-3.69,5.68,5.68,0,0,0,1-3.4,6.24,6.24,0,0,0-1.17-3.39,6,6,0,0,0-2.75-2.18,5.57,5.57,0,0,0-3.39-.27,16.14,16.14,0,0,0-4.81,2.56Zm-5.08-.84,6-4.21a43.77,43.77,0,0,1,7.09-4.34,9.52,9.52,0,0,1,6.21-.43,9.25,9.25,0,0,1,5.16,3.79,9.78,9.78,0,0,1,1.86,5.13,8.69,8.69,0,0,1-1.34,5.13,18.45,18.45,0,0,1-5.25,5.13l20.65,6.42-3.73,2.62L341,279.31l-1.72,1.2,9.82,14-3,2.11Zm-21,22.12,8,9.58,4.82-3.95a15.92,15.92,0,0,0,3.79-4.07,5.46,5.46,0,0,0,.68-3.47,6.09,6.09,0,0,0-1.44-3.28,6,6,0,0,0-2.95-2,5.43,5.43,0,0,0-3.43,0,16,16,0,0,0-4.53,2.94Zm-5.11-.38,5.62-4.71a42.67,42.67,0,0,1,6.87-5,9.42,9.42,0,0,1,6-.87,10.29,10.29,0,0,1,7.83,9.25,9.54,9.54,0,0,1-2,5.92,47.18,47.18,0,0,1-6.78,6.46l-2,1.7,11,13.1-2.82,2.36Z"/><path class="cls-7" d="M788.73,564.88l-1.1,4.09-17.07,5.16L782.8,587l-1.1,4.1-15.54-16.22-17-4.54.94-3.52,17,4.57Zm.73-26,3.52.62-3.51,19.86-3.52-.61,1.43-8.08-32.7-5.77.65-3.69L788,547ZM794,527.06l-.26,3.66-36.69-2.56.26-3.68Zm-29-30.82,1.82,3.16c-4.09,2.13-6.15,4.63-6.21,7.53a7.34,7.34,0,0,0,.8,3.47,6.13,6.13,0,0,0,5.33,3.43,6.28,6.28,0,0,0,3.65-1.2,30.27,30.27,0,0,0,6-6.18,32.51,32.51,0,0,1,5.12-5.65,9.25,9.25,0,0,1,5.65-1.84,8.46,8.46,0,0,1,4.36,1.22,8.28,8.28,0,0,1,3,3.29,9.26,9.26,0,0,1,1.06,4.56,9.5,9.5,0,0,1-1.38,4.84,16.28,16.28,0,0,1-4.81,4.69l-2.23-3a14.09,14.09,0,0,0,3.69-3.48,5.93,5.93,0,0,0,.93-3.16,5,5,0,0,0-1.3-3.67,4.38,4.38,0,0,0-3.29-1.46,5.56,5.56,0,0,0-2.33.45A9,9,0,0,0,782.5,505c-.47.47-1.72,2-3.75,4.69a27,27,0,0,1-6.4,6.45,10.29,10.29,0,0,1-5.55,1.68,9.43,9.43,0,0,1-6.91-3.18,10.2,10.2,0,0,1-2.81-7.43,10.75,10.75,0,0,1,1.89-6A16.86,16.86,0,0,1,765.07,496.24Zm24.54-26.6-12.46,1.1.5,6.3a16,16,0,0,0,1.17,5.35,5.67,5.67,0,0,0,2.48,2.55,6.2,6.2,0,0,0,3.51.68,6,6,0,0,0,3.27-1.29,5.63,5.63,0,0,0,1.93-2.81,16.31,16.31,0,0,0,.18-5.43Zm3.27-4,.64,7.3a43.53,43.53,0,0,1,.22,8.31,9.55,9.55,0,0,1-2.74,5.59,9.27,9.27,0,0,1-5.86,2.57,9.71,9.71,0,0,1-5.38-.95,8.77,8.77,0,0,1-3.78-3.73,18.31,18.31,0,0,1-1.81-7.11L758.29,492.3l-.41-4.54,15.89-14.63L773.6,471l-17.05,1.49-.32-3.67Zm-5-31.2,4,20.7-3.55.68L785,438.76,773.72,441,777,457.9l-3.54.68-3.29-16.94L756,444.39l3.29,16.95-3.56.69-4-20.55Zm-13.53-41.58,1.3,3.79-22.9,20.77,30.91,2.47,1.3,3.79-40-3.15-.27-.77Zm-5.23-11.81,1.55,3.33-33.34,15.54-1.55-3.33Zm-51.18-17.43,31.85-18.39.41.69L738,381.19l24.39-14.08,1.82,3.14-31.86,18.4-.41-.72L743.9,353l-24.07,13.9Zm8.5-50.1,2.32,2.86-17.26,14c-2.05,1.66-3.29,2.73-3.74,3.21a8.23,8.23,0,0,0-2,3.28,7.48,7.48,0,0,0,0,3.93,9.47,9.47,0,0,0,1.87,3.86,8,8,0,0,0,2.8,2.23,7.6,7.6,0,0,0,3.43.83,8.65,8.65,0,0,0,3.62-.81,28,28,0,0,0,4.71-3.32l17.25-14,2.32,2.86-17.26,14a27.08,27.08,0,0,1-6.79,4.27,10.83,10.83,0,0,1-6.54.33,11,11,0,0,1-6.15-4,13.47,13.47,0,0,1-3.14-7.27,10.22,10.22,0,0,1,1.69-6.85,29.79,29.79,0,0,1,5.61-5.39Z"/><path class="cls-8" d="M788.73,564.88l-1.1,4.09-17.07,5.16L782.8,587l-1.1,4.1-15.54-16.22-17-4.54.94-3.52,17,4.57Zm.73-26,3.52.62-3.51,19.86-3.52-.61,1.43-8.08-32.7-5.77.65-3.69L788,547ZM794,527.06l-.26,3.66-36.69-2.56.26-3.68Zm-29-30.82,1.82,3.16c-4.09,2.13-6.15,4.63-6.21,7.53a7.34,7.34,0,0,0,.8,3.47,6.13,6.13,0,0,0,5.33,3.43,6.28,6.28,0,0,0,3.65-1.2,30.27,30.27,0,0,0,6-6.18,32.51,32.51,0,0,1,5.12-5.65,9.25,9.25,0,0,1,5.65-1.84,8.46,8.46,0,0,1,4.36,1.22,8.28,8.28,0,0,1,3,3.29,9.26,9.26,0,0,1,1.06,4.56,9.5,9.5,0,0,1-1.38,4.84,16.28,16.28,0,0,1-4.81,4.69l-2.23-3a14.09,14.09,0,0,0,3.69-3.48,5.93,5.93,0,0,0,.93-3.16,5,5,0,0,0-1.3-3.67,4.38,4.38,0,0,0-3.29-1.46,5.56,5.56,0,0,0-2.33.45A9,9,0,0,0,782.5,505c-.47.47-1.72,2-3.75,4.69a27,27,0,0,1-6.4,6.45,10.29,10.29,0,0,1-5.55,1.68,9.43,9.43,0,0,1-6.91-3.18,10.2,10.2,0,0,1-2.81-7.43,10.75,10.75,0,0,1,1.89-6A16.86,16.86,0,0,1,765.07,496.24Zm24.54-26.6-12.46,1.1.5,6.3a16,16,0,0,0,1.17,5.35,5.67,5.67,0,0,0,2.48,2.55,6.2,6.2,0,0,0,3.51.68,6,6,0,0,0,3.27-1.29,5.63,5.63,0,0,0,1.93-2.81,16.31,16.31,0,0,0,.18-5.43Zm3.27-4,.64,7.3a43.53,43.53,0,0,1,.22,8.31,9.55,9.55,0,0,1-2.74,5.59,9.27,9.27,0,0,1-5.86,2.57,9.71,9.71,0,0,1-5.38-.95,8.77,8.77,0,0,1-3.78-3.73,18.31,18.31,0,0,1-1.81-7.11L758.29,492.3l-.41-4.54,15.89-14.63L773.6,471l-17.05,1.49-.32-3.67Zm-5-31.2,4,20.7-3.55.68L785,438.76,773.72,441,777,457.9l-3.54.68-3.29-16.94L756,444.39l3.29,16.95-3.56.69-4-20.55Zm-13.53-41.58,1.3,3.79-22.9,20.77,30.91,2.47,1.3,3.79-40-3.15-.27-.77Zm-5.23-11.81,1.55,3.33-33.34,15.54-1.55-3.33Zm-51.18-17.43,31.85-18.39.41.69L738,381.19l24.39-14.08,1.82,3.14-31.86,18.4-.41-.72L743.9,353l-24.07,13.9Zm8.5-50.1,2.32,2.86-17.26,14c-2.05,1.66-3.29,2.73-3.74,3.21a8.23,8.23,0,0,0-2,3.28,7.48,7.48,0,0,0,0,3.93,9.47,9.47,0,0,0,1.87,3.86,8,8,0,0,0,2.8,2.23,7.6,7.6,0,0,0,3.43.83,8.65,8.65,0,0,0,3.62-.81,28,28,0,0,0,4.71-3.32l17.25-14,2.32,2.86-17.26,14a27.08,27.08,0,0,1-6.79,4.27,10.83,10.83,0,0,1-6.54.33,11,11,0,0,1-6.15-4,13.47,13.47,0,0,1-3.14-7.27,10.22,10.22,0,0,1,1.69-6.85,29.79,29.79,0,0,1,5.61-5.39Z"/><path class="cls-7" d="M680.46,744l-3.26,2.4a51.71,51.71,0,0,0-3.8-11.78,64.55,64.55,0,0,0-7-12,70.59,70.59,0,0,0-8.46-9.56,51.86,51.86,0,0,0-8.87-6.86l3.1-2.28a49.72,49.72,0,0,1,8.61,6.68,69.65,69.65,0,0,1,8.35,9.45,71.7,71.7,0,0,1,7.07,11.75A58.61,58.61,0,0,1,680.46,744Zm-45.38-18,1.31,14.71,10.85-6.39Zm-3.56-7,33.43,23-3.4,2-11.12-7.5-13.66,8L638,758l-3.53,2.1-3.68-40.53ZM608.1,730.63l3.35-1.52,15.24,33.48-3.35,1.53Zm-20,43.39,4-1.42q7.18-2.55,9.65-4.42a12.19,12.19,0,0,0,4.53-6.76,15,15,0,0,0-.62-8.89,15.81,15.81,0,0,0-5.46-7.72,13,13,0,0,0-8.5-2.5c-2.39.11-6.1,1.05-11.08,2.8l-2.45.88Zm-2.17,4.46-12.27-34.69,7.2-2.54c5.19-1.84,9.1-2.74,11.73-2.74a16.11,16.11,0,0,1,10.06,3.33,21.44,21.44,0,0,1,7.51,19.37,15.4,15.4,0,0,1-3.79,7.92c-2,2.09-5.09,3.92-9.41,5.44ZM546,787.55l-7.32-36.06.79-.16,29.56,22.75-5.6-27.61,3.55-.71,7.32,36.06-.82.15-29.29-22.42,5.53,27.23Zm-17.81-35.18,3.68-.3,2.86,36.68-3.67.28Zm-12.78-.83,4-.16a52.28,52.28,0,0,0-3.42,11.89,63.07,63.07,0,0,0-.88,13.87,70.88,70.88,0,0,0,1.66,12.67,51.73,51.73,0,0,0,3.52,10.63l-3.84.17a51.38,51.38,0,0,1-3.4-10.34,69.77,69.77,0,0,1-1.64-12.5A71.74,71.74,0,0,1,512.2,764,58.85,58.85,0,0,1,515.44,751.54Zm-48.83,19.2-1.84,14,4.51.6a16,16,0,0,0,6,0,6.61,6.61,0,0,0,3.31-2.05,6.18,6.18,0,0,0,1.61-3.44,6.33,6.33,0,0,0-1-4.46,8.17,8.17,0,0,0-4-3,32.13,32.13,0,0,0-6.41-1.32Zm2-15.33-1.54,11.66,2.08.28a16.61,16.61,0,0,0,5.67,0,6,6,0,0,0,3.12-1.86,5.86,5.86,0,0,0,1.48-3.26,4.84,4.84,0,0,0-1.21-4.15c-1.05-1.11-2.84-1.82-5.38-2.17Zm-3.09-4.06,7.19,1a17,17,0,0,1,6.53,1.92,8.18,8.18,0,0,1,3.26,3.65,8.79,8.79,0,0,1,.74,4.9,8.67,8.67,0,0,1-1.79,4.28,8.92,8.92,0,0,1-3.92,2.76,13.67,13.67,0,0,1,4.09,2.85,9,9,0,0,1,2,3.48,9.52,9.52,0,0,1,.33,4.1,9.9,9.9,0,0,1-4.19,7,12.13,12.13,0,0,1-9,1.92l-10-1.34Zm-23.93,3.73-9.27,11.47,12.23,3Zm2.27-7.48L452,787.37l-3.84-.92-2.78-13.11-15.41-3.7L421.51,780l-4-1L443,747.4ZM417,739.86l3.53,1.11-7.49,23.67c-1.14,3.66-2.22,6.1-3.24,7.34a7.37,7.37,0,0,1-3.9,2.51,9.07,9.07,0,0,1-5.2-.25,11.47,11.47,0,0,1-3.93-2.14,18.06,18.06,0,0,1-3.64-4.33l2.73-2.21a31.49,31.49,0,0,0,3.7,4.17,6.31,6.31,0,0,0,2.18,1.26,4.73,4.73,0,0,0,3,0,5.13,5.13,0,0,0,2.48-1.87,23,23,0,0,0,2.32-5.66ZM357.81,754l17-32.62.7.36L384.2,758l13-25,3.22,1.68-17,32.62-.74-.4-8.64-35.87-12.86,24.67Zm-10.76-49.52,3.06,2-12.27,18.52a43.57,43.57,0,0,0-2.6,4.19,8.05,8.05,0,0,0-.93,3.73,7.41,7.41,0,0,0,1.2,3.76,9.22,9.22,0,0,0,2.94,3.1,7.77,7.77,0,0,0,3.34,1.29,7.92,7.92,0,0,0,3.53-.22,9,9,0,0,0,3.21-1.87,29.55,29.55,0,0,0,3.49-4.58L364.28,716l3.07,2-12.27,18.51a27.08,27.08,0,0,1-5.19,6.1,10.87,10.87,0,0,1-6.14,2.29,11.1,11.1,0,0,1-7.07-2,13.35,13.35,0,0,1-5.18-6,10.21,10.21,0,0,1-.44-7,29.47,29.47,0,0,1,3.72-6.83ZM325.6,691.06l-8.12,9.5,4.68,4.11a15.61,15.61,0,0,0,4.64,3.06,5.58,5.58,0,0,0,3.54.1,6.16,6.16,0,0,0,3-2,6,6,0,0,0,1.44-3.24,5.5,5.5,0,0,0-.58-3.37,15.55,15.55,0,0,0-3.65-4Zm-.47-5.1,5.57,4.76a42.81,42.81,0,0,1,6.11,5.94,9.54,9.54,0,0,1,1.85,5.77,10.32,10.32,0,0,1-7.85,9.25,9.52,9.52,0,0,1-6.18-1.06,46,46,0,0,1-7.48-5.62l-2-1.7-11.12,13-2.79-2.39Z"/><path class="cls-8" d="M680.46,744l-3.26,2.4a51.71,51.71,0,0,0-3.8-11.78,64.55,64.55,0,0,0-7-12,70.59,70.59,0,0,0-8.46-9.56,51.86,51.86,0,0,0-8.87-6.86l3.1-2.28a49.72,49.72,0,0,1,8.61,6.68,69.65,69.65,0,0,1,8.35,9.45,71.7,71.7,0,0,1,7.07,11.75A58.61,58.61,0,0,1,680.46,744Zm-45.38-18,1.31,14.71,10.85-6.39Zm-3.56-7,33.43,23-3.4,2-11.12-7.5-13.66,8L638,758l-3.53,2.1-3.68-40.53ZM608.1,730.63l3.35-1.52,15.24,33.48-3.35,1.53Zm-20,43.39,4-1.42q7.18-2.55,9.65-4.42a12.19,12.19,0,0,0,4.53-6.76,15,15,0,0,0-.62-8.89,15.81,15.81,0,0,0-5.46-7.72,13,13,0,0,0-8.5-2.5c-2.39.11-6.1,1.05-11.08,2.8l-2.45.88Zm-2.17,4.46-12.27-34.69,7.2-2.54c5.19-1.84,9.1-2.74,11.73-2.74a16.11,16.11,0,0,1,10.06,3.33,21.44,21.44,0,0,1,7.51,19.37,15.4,15.4,0,0,1-3.79,7.92c-2,2.09-5.09,3.92-9.41,5.44ZM546,787.55l-7.32-36.06.79-.16,29.56,22.75-5.6-27.61,3.55-.71,7.32,36.06-.82.15-29.29-22.42,5.53,27.23Zm-17.81-35.18,3.68-.3,2.86,36.68-3.67.28Zm-12.78-.83,4-.16a52.28,52.28,0,0,0-3.42,11.89,63.07,63.07,0,0,0-.88,13.87,70.88,70.88,0,0,0,1.66,12.67,51.73,51.73,0,0,0,3.52,10.63l-3.84.17a51.38,51.38,0,0,1-3.4-10.34,69.77,69.77,0,0,1-1.64-12.5A71.74,71.74,0,0,1,512.2,764,58.85,58.85,0,0,1,515.44,751.54Zm-48.83,19.2-1.84,14,4.51.6a16,16,0,0,0,6,0,6.61,6.61,0,0,0,3.31-2.05,6.18,6.18,0,0,0,1.61-3.44,6.33,6.33,0,0,0-1-4.46,8.17,8.17,0,0,0-4-3,32.13,32.13,0,0,0-6.41-1.32Zm2-15.33-1.54,11.66,2.08.28a16.61,16.61,0,0,0,5.67,0,6,6,0,0,0,3.12-1.86,5.86,5.86,0,0,0,1.48-3.26,4.84,4.84,0,0,0-1.21-4.15c-1.05-1.11-2.84-1.82-5.38-2.17Zm-3.09-4.06,7.19,1a17,17,0,0,1,6.53,1.92,8.18,8.18,0,0,1,3.26,3.65,8.79,8.79,0,0,1,.74,4.9,8.67,8.67,0,0,1-1.79,4.28,8.92,8.92,0,0,1-3.92,2.76,13.67,13.67,0,0,1,4.09,2.85,9,9,0,0,1,2,3.48,9.52,9.52,0,0,1,.33,4.1,9.9,9.9,0,0,1-4.19,7,12.13,12.13,0,0,1-9,1.92l-10-1.34Zm-23.93,3.73-9.27,11.47,12.23,3Zm2.27-7.48L452,787.37l-3.84-.92-2.78-13.11-15.41-3.7L421.51,780l-4-1L443,747.4ZM417,739.86l3.53,1.11-7.49,23.67c-1.14,3.66-2.22,6.1-3.24,7.34a7.37,7.37,0,0,1-3.9,2.51,9.07,9.07,0,0,1-5.2-.25,11.47,11.47,0,0,1-3.93-2.14,18.06,18.06,0,0,1-3.64-4.33l2.73-2.21a31.49,31.49,0,0,0,3.7,4.17,6.31,6.31,0,0,0,2.18,1.26,4.73,4.73,0,0,0,3,0,5.13,5.13,0,0,0,2.48-1.87,23,23,0,0,0,2.32-5.66ZM357.81,754l17-32.62.7.36L384.2,758l13-25,3.22,1.68-17,32.62-.74-.4-8.64-35.87-12.86,24.67Zm-10.76-49.52,3.06,2-12.27,18.52a43.57,43.57,0,0,0-2.6,4.19,8.05,8.05,0,0,0-.93,3.73,7.41,7.41,0,0,0,1.2,3.76,9.22,9.22,0,0,0,2.94,3.1,7.77,7.77,0,0,0,3.34,1.29,7.92,7.92,0,0,0,3.53-.22,9,9,0,0,0,3.21-1.87,29.55,29.55,0,0,0,3.49-4.58L364.28,716l3.07,2-12.27,18.51a27.08,27.08,0,0,1-5.19,6.1,10.87,10.87,0,0,1-6.14,2.29,11.1,11.1,0,0,1-7.07-2,13.35,13.35,0,0,1-5.18-6,10.21,10.21,0,0,1-.44-7,29.47,29.47,0,0,1,3.72-6.83ZM325.6,691.06l-8.12,9.5,4.68,4.11a15.61,15.61,0,0,0,4.64,3.06,5.58,5.58,0,0,0,3.54.1,6.16,6.16,0,0,0,3-2,6,6,0,0,0,1.44-3.24,5.5,5.5,0,0,0-.58-3.37,15.55,15.55,0,0,0-3.65-4Zm-.47-5.1,5.57,4.76a42.81,42.81,0,0,1,6.11,5.94,9.54,9.54,0,0,1,1.85,5.77,10.32,10.32,0,0,1-7.85,9.25,9.52,9.52,0,0,1-6.18-1.06,46,46,0,0,1-7.48-5.62l-2-1.7-11.12,13-2.79-2.39Z"/><path class="cls-4" d="M268.78,642.43A10.57,10.57,0,1,1,258.21,653,10.59,10.59,0,0,1,268.78,642.43Z"/><path class="cls-8" d="M268.78,642.43A10.57,10.57,0,1,1,258.21,653,10.59,10.59,0,0,1,268.78,642.43Z"/><path class="cls-4" d="M728.48,642.43A10.57,10.57,0,1,1,717.91,653,10.59,10.59,0,0,1,728.48,642.43Z"/><path class="cls-8" d="M728.48,642.43A10.57,10.57,0,1,1,717.91,653,10.59,10.59,0,0,1,728.48,642.43Z"/></svg>